#N canvas 581 259 535 471 10;
#X obj 107 169 adc~;
#X obj 108 356 dac~;
#X obj 107 286 lop~ 800;
#X obj 192 286 lop~ 800;
#X connect 0 0 2 0;
#X connect 0 0 3 0;
#X connect 2 0 1 0;
#X connect 3 0 1 1;
