#N canvas 777 130 860 722 10;
#X msg 162 61 stop;
#X obj 306 -72 bng 15 250 50 0 empty &0switch empty 17 7 0 10 -262144
-1 -1;
#X obj 336 184 float;
#X obj 375 184 + 1;
#X floatatom 336 219 5 0 0 0 - - -;
#X obj 336 251 mod 3;
#X obj 336 283 hradio 15 1 0 3 empty empty empty 0 -8 0 10 -262144
-1 -1 2;
#X obj 336 330 select 0 1 2;
#X floatatom 336 305 5 0 0 0 - - -;
#X obj 336 156 bng 15 250 50 0 empty empty empty 17 7 0 10 -262144
-1 -1;
#X msg 382 364 open Track03.wav;
#X msg 359 391 open Track02.wav;
#X msg 336 423 open Track01.wav;
#X msg 211 50 start;
#X msg 336 123 Next;
#X obj 211 76 bng 15 250 50 0 empty empty empty 17 7 0 10 -262144 -1
-1;
#X obj 190 19 loadbang;
#X msg 351 -101 Loop;
#X obj 351 -43 tgl 15 0 empty empty empty 17 7 0 10 -262144 -1 -1 0
1;
#X obj 351 -71 bng 15 250 50 0 empty empty empty 17 7 0 10 -262144
-1 -1;
#X msg 306 -43 1;
#X obj 336 -16 ==;
#X obj 336 14 select 0 1;
#X obj -36 195 vsl 15 128 0 2 0 0 empty &volume empty 0 -9 0 10 -4034
-1 -1 8500 1;
#X obj 167 326 *~;
#X obj 166 364 dac~;
#X floatatom -36 326 5 0 0 0 - - -;
#X obj 167 106 readsf~ 2;
#X obj 166 199 lop~ 1;
#X obj -6 68 vsl 15 128 0 2000 0 0 empty &lowPass empty 0 -9 0 10 -262144
-1 -1 1500 1;
#X obj 166 259 hip~ 1;
#X obj 83 128 vsl 15 128 0 2000 0 0 empty &highPass empty 0 -9 0 10
-262144 -1 -1 1700 1;
#X floatatom -6 199 5 0 0 0 - - -;
#X floatatom 83 259 5 0 0 0 - - -;
#X text 13 104 Low Pass filter slider;
#X text 109 222 High Pass Filter Slider;
#X text -9 237 Volume Slider;
#X text 379 123 Select Next Song Number;
#X text 252 47 Start player;
#X text 373 -85 comment;
#X text 384 248 mod 3 for swapping between 0 \, 1 \, & 2;
#X text 399 280 Visual representation of song number;
#X connect 0 0 27 0;
#X connect 1 0 20 0;
#X connect 1 0 13 0;
#X connect 2 0 3 0;
#X connect 2 0 4 0;
#X connect 3 0 2 1;
#X connect 4 0 5 0;
#X connect 5 0 6 0;
#X connect 6 0 8 0;
#X connect 7 0 12 0;
#X connect 7 1 11 0;
#X connect 7 2 10 0;
#X connect 8 0 7 0;
#X connect 9 0 2 0;
#X connect 10 0 27 0;
#X connect 11 0 27 0;
#X connect 12 0 27 0;
#X connect 13 0 15 0;
#X connect 13 0 27 0;
#X connect 14 0 9 0;
#X connect 15 0 8 0;
#X connect 16 0 13 0;
#X connect 17 0 19 0;
#X connect 18 0 21 1;
#X connect 19 0 18 0;
#X connect 20 0 21 0;
#X connect 21 0 22 0;
#X connect 22 0 2 0;
#X connect 22 1 8 0;
#X connect 23 0 24 1;
#X connect 23 0 26 0;
#X connect 24 0 25 0;
#X connect 24 0 25 1;
#X connect 27 0 28 0;
#X connect 27 1 28 0;
#X connect 27 2 14 0;
#X connect 28 0 30 0;
#X connect 29 0 28 1;
#X connect 29 0 32 0;
#X connect 30 0 24 0;
#X connect 31 0 30 1;
#X connect 31 0 33 0;
